<?xml version="1.0" encoding="UTF-8"?>
<svg version="1.1" xmlns="http://www.w3.org/2000/svg" width="512" height="512">
<path d="M0 0 C0.75748535 0.18272461 1.5149707 0.36544922 2.29541016 0.55371094 C29.13204195 7.17185581 52.3289312 20.78507193 72 40 C72.84820312 40.78632812 73.69640625 41.57265625 74.5703125 42.3828125 C94.23856477 61.06456936 107.98210172 87.67382775 114 114 C114.26401611 115.12349854 114.52803223 116.24699707 114.80004883 117.40454102 C117.63154386 130.55744611 117.33960914 143.67019917 117.1875 157.0625 C117.17241494 159.39387149 117.15873335 161.72525251 117.14648438 164.05664062 C117.11638728 169.70486184 117.05761365 175.35172849 117 181 C124.92 181 132.84 181 141 181 C141.24881126 195.95164274 141.45122361 210.90221761 141.56993389 225.85544395 C141.62653188 232.7994055 141.70361338 239.74198474 141.82983398 246.68505859 C141.95165962 253.38960298 142.01518066 260.09241749 142.04364967 266.79811478 C142.06392823 269.35229681 142.10353037 271.90640296 142.16303062 274.45997238 C142.63452637 295.53924776 142.63452637 295.53924776 138.60084534 300.75550842 C136.04416518 303.36620286 133.18421986 305.20845946 130 307 C128.82435377 307.88626287 127.65682285 308.78358277 126.50390625 309.69921875 C123.35284489 311.82921906 120.19417955 313.93499772 117 316 C116.07960938 316.60585938 115.15921875 317.21171875 114.2109375 317.8359375 C99.29842309 327.11950281 75.72276043 338 58 338 C58.45765747 339.42252075 58.45765747 339.42252075 58.92456055 340.8737793 C61.23838643 348.13317659 63.43268915 355.40664918 65.39453125 362.76953125 C65.59060471 363.50405518 65.78667816 364.2385791 65.98869324 364.99536133 C66.18683121 365.73761963 66.38496918 366.47987793 66.58911133 367.24462891 C70.42783969 381.61841133 74.40645583 395.5997341 81 409 C81.52980469 410.08152344 82.05960937 411.16304688 82.60546875 412.27734375 C83.44631909 413.95668912 84.30248334 415.62866125 85.1875 417.28515625 C86 419 86 419 86 421 C51.39165362 421.09160029 16.78333497 421.16206143 -17.82510649 421.20426132 C-21.91302692 421.20926401 -26.00094711 421.21444131 -30.08886719 421.21972656 C-30.90268192 421.2207758 -31.71649664 421.22182505 -32.55497243 421.22290608 C-45.72380159 421.24030068 -58.89256075 421.27183315 -72.06134842 421.30861118 C-85.57860068 421.34604694 -99.09581632 421.36824142 -112.61311829 421.37635398 C-120.95079536 421.3818363 -129.28827454 421.39913765 -137.62589069 421.43166587 C-143.34706208 421.45284631 -149.0681315 421.45919208 -154.78933923 421.45400551 C-158.08786629 421.45144916 -161.38597642 421.45750808 -164.68445778 421.4768219 C-168.26768529 421.49677215 -171.85007143 421.49191976 -175.43331909 421.48101807 C-176.46641956 421.49266943 -177.49952003 421.5043208 -178.56392658 421.51632524 C-187.70899528 421.44130743 -195.68527888 419.03863105 -202.46875 412.703125 C-209.07545485 405.35485123 -211.3092562 397.78987835 -211.24050903 388.07827759 C-211.24221788 387.19110373 -211.24392673 386.30392987 -211.24568737 385.38987195 C-211.24897606 382.42340614 -211.23798872 379.45716757 -211.22705078 376.49072266 C-211.22648653 374.36178594 -211.22680349 372.23284884 -211.22793579 370.10391235 C-211.22850977 364.32755827 -211.21674799 358.5512872 -211.20278788 352.77495241 C-211.19028819 346.73712872 -211.18911062 340.69930314 -211.18673706 334.66146851 C-211.18052006 323.22937572 -211.16410624 311.79732117 -211.14403808 300.36524522 C-211.12168595 287.34963958 -211.11068737 274.33403212 -211.10064721 261.31841207 C-211.07974023 234.54558612 -211.04415723 207.77279682 -211 181 C-203.08 181 -195.16 181 -187 181 C-187.03480469 177.58785156 -187.06960937 174.17570313 -187.10546875 170.66015625 C-187.12897058 167.29729038 -187.14712644 163.93443421 -187.16479492 160.5715332 C-187.17973498 158.26257119 -187.20009442 155.95363681 -187.22631836 153.64477539 C-187.37631787 140.08305471 -187.10601189 127.23572963 -184 114 C-183.79141357 113.07421143 -183.58282715 112.14842285 -183.36791992 111.19458008 C-176.92449653 84.60305708 -162.98350672 61.43415376 -144 42 C-142.82050781 40.72769531 -142.82050781 40.72769531 -141.6171875 39.4296875 C-122.71126524 19.52543271 -96.43141547 6.50253118 -70 0 C-68.71996094 -0.32097656 -67.43992188 -0.64195313 -66.12109375 -0.97265625 C-45.62947898 -5.4766941 -20.30507036 -5.2143075 0 0 Z M-88 60 C-88.99773437 60.55558594 -89.99546875 61.11117187 -91.0234375 61.68359375 C-115.12715468 76.08366548 -129.80955422 100.90147892 -136.65625 127.5546875 C-140.50488403 144.81694306 -139 163.70596324 -139 181 C-70.36 181 -1.72 181 69 181 C69 143.25059789 68.90063855 111.64361733 44 82 C43.38382813 81.24976563 42.76765625 80.49953125 42.1328125 79.7265625 C24.62511193 59.12513171 -1.45935815 47.72485085 -28 45.25 C-49.65736947 44.0638966 -69.21066918 49.48234194 -88 60 Z M-99 205 C-99 239.32 -99 273.64 -99 309 C-74.91057569 310.22324817 -74.91057569 310.22324817 -54 301 C-44.57788106 291.40044002 -42.85006101 280.98447881 -42.83203125 267.953125 C-42.82870285 267.10127625 -42.82537445 266.24942749 -42.82194519 265.37176514 C-42.81690543 263.57662491 -42.81453595 261.78147541 -42.81469727 259.98632812 C-42.81251765 257.27197422 -42.79434923 254.55803183 -42.77539062 251.84375 C-42.60694999 232.73324545 -42.60694999 232.73324545 -51 216 C-64.79071016 202.4642013 -79.77005067 205 -99 205 Z M-27 205 C-27 239.32 -27 273.64 -27 309 C-21.72 309 -16.44 309 -11 309 C-11 295.8 -11 282.6 -11 269 C-8.36 269 -5.72 269 -3 269 C6.07297055 268.27516213 13.61836936 265.46414722 20.07421875 258.88671875 C26.76574134 250.76430454 28.60638545 243.99056088 28.34765625 233.47265625 C27.53279986 225.33324808 24.15934984 218.41757868 18 213 C4.55565656 202.76906729 -10.2576757 205 -27 205 Z M45 205 C45 239.32 45 273.64 45 309 C50.28 309 55.56 309 61 309 C61.33 297.78 61.66 286.56 62 275 C67.7336872 281.70171231 73.38590623 288.42279361 78.8125 295.375 C79.27825439 295.96313477 79.74400879 296.55126953 80.22387695 297.15722656 C82.10703699 299.53901949 83.94355174 301.91593386 85.63671875 304.4375 C87.08517174 306.65835061 87.08517174 306.65835061 90 309 C93.85433727 309.56365656 97.07286197 309.33524349 101 309 C101 303.72 101 298.44 101 293 C98.03 292.01 98.03 292.01 95 291 C93.09716797 289.30761719 93.09716797 289.30761719 91.4921875 287.296875 C90.89792969 286.56339844 90.30367188 285.82992187 89.69140625 285.07421875 C89.09199219 284.30722656 88.49257813 283.54023438 87.875 282.75 C87.26785156 281.99847656 86.66070312 281.24695313 86.03515625 280.47265625 C82.80488872 276.44010005 79.78538748 272.35130183 77 268 C77.96099609 267.56300781 77.96099609 267.56300781 78.94140625 267.1171875 C88.49819996 262.58803638 94.3537852 258.21770219 98.89453125 248.41796875 C101.69435274 239.76127688 101.17030645 230.36237881 97.25 222.140625 C93.13726497 215.09756626 87.59757122 210.14214533 80 207 C66.92791034 204.28445825 66.92791034 204.28445825 45 205 Z M-172 217 C-180.12171034 227.93227677 -179.32254738 241.33158473 -179.26074219 254.31542969 C-179.25002252 256.99437087 -179.26068541 259.67264166 -179.2734375 262.3515625 C-179.37216534 281.36140008 -179.37216534 281.36140008 -171 298 C-163.82717271 305.04024268 -157.10394593 308.09228241 -147.125 308.4375 C-138.36195394 308.22193844 -131.04898547 305.90170261 -124.59765625 299.81640625 C-115.35192447 289.30475521 -114.66205596 277.79487261 -114.875 264.3125 C-114.91625 260.579375 -114.9575 256.84625 -115 253 C-122.92 253 -130.84 253 -139 253 C-139 258.28 -139 263.56 -139 269 C-136.36 269 -133.72 269 -131 269 C-131.41895067 284.2916993 -131.41895067 284.2916993 -136 289 C-141.44935508 292.88301721 -146.51323572 292.79106881 -153 292 C-157.58201929 289.82956981 -159.94908459 287.60044619 -162 283 C-162.45992589 279.11734244 -162.44408725 275.2539204 -162.43359375 271.34765625 C-162.4388356 270.21476669 -162.44407745 269.08187714 -162.44947815 267.91465759 C-162.45589428 265.52164529 -162.45456668 263.12860143 -162.44604492 260.7355957 C-162.43753842 257.07901704 -162.46629896 253.42400239 -162.49804688 249.76757812 C-162.49965911 247.44010463 -162.49908094 245.11262838 -162.49609375 242.78515625 C-162.50732773 241.69437271 -162.51856171 240.60358917 -162.53013611 239.47975159 C-162.47394007 233.3426189 -162.14018232 229.65090345 -158 225 C-152.77740143 220.94369602 -147.34659858 221.22602456 -141 222 C-136.48665736 224.13789915 -134.05714674 226.452623 -132 231 C-131.505 233.97 -131.505 233.97 -131 237 C-126.05 237 -121.1 237 -116 237 C-116 228.13421424 -118.03793961 221.18811093 -124.15625 214.6015625 C-132.421093 207.42235566 -139.68072796 205.61546398 -150.390625 205.7265625 C-159.25078796 206.39778697 -166.13859639 210.40755273 -172 217 Z M-156 335 C-157.33838733 337.45570175 -158.67086232 339.91429916 -160 342.375 C-160.3815625 343.07367188 -160.763125 343.77234375 -161.15625 344.4921875 C-163.25724744 348.0428946 -163.25724744 348.0428946 -164 352 C-165.16015625 352.09087891 -165.16015625 352.09087891 -166.34375 352.18359375 C-172.25249543 352.65892599 -178.12508141 353.20914557 -184 354 C-184.34454176 357.14973714 -184.34454176 357.14973714 -181.8828125 359.2265625 C-180.97273438 360.01804687 -180.06265625 360.80953125 -179.125 361.625 C-178.22007812 362.42164063 -177.31515625 363.21828125 -176.3828125 364.0390625 C-174.17226278 366.00680194 -174.17226278 366.00680194 -172 367 C-172.14330577 369.0001827 -172.28978294 371.00013825 -172.4375 373 C-172.51871094 374.11375 -172.59992188 375.2275 -172.68359375 376.375 C-173.02346676 380.26885373 -173.49431852 384.12452513 -174 388 C-172.84242188 387.41089844 -171.68484375 386.82179688 -170.4921875 386.21484375 C-168.95353458 385.45489932 -167.41444897 384.69583054 -165.875 383.9375 C-165.11445313 383.54755859 -164.35390625 383.15761719 -163.5703125 382.75585938 C-158.96582041 380.51315418 -156.0760071 379.32599766 -151 381 C-148.31845687 382.08334904 -145.7223893 383.29195666 -143.125 384.5625 C-140.77375 385.696875 -138.4225 386.83125 -136 388 C-136.99 381.07 -137.98 374.14 -139 367 C-137.68 366.34 -136.36 365.68 -135 365 C-133.21367703 363.50057132 -131.46545079 361.95502047 -129.75 360.375 C-128.85796875 359.55773437 -127.9659375 358.74046875 -127.046875 357.8984375 C-126.37140625 357.27195312 -125.6959375 356.64546875 -125 356 C-125.495 355.01 -125.495 355.01 -126 354 C-128.43793207 353.51835976 -130.78813018 353.15781367 -133.25 352.875 C-133.91902344 352.78863281 -134.58804688 352.70226562 -135.27734375 352.61328125 C-138.87032177 352.16857081 -142.38037144 351.90179302 -146 352 C-146.20625 351.236875 -146.4125 350.47375 -146.625 349.6875 C-148.55894391 344.50101406 -151.2785146 339.80966916 -154 335 C-154.66 335 -155.32 335 -156 335 Z M-68 335 C-69.33838733 337.45570175 -70.67086232 339.91429916 -72 342.375 C-72.3815625 343.07367188 -72.763125 343.77234375 -73.15625 344.4921875 C-75.25724744 348.0428946 -75.25724744 348.0428946 -76 352 C-77.16015625 352.09087891 -77.16015625 352.09087891 -78.34375 352.18359375 C-84.25249543 352.65892599 -90.12508141 353.20914557 -96 354 C-96.34454176 357.14973714 -96.34454176 357.14973714 -93.8828125 359.2265625 C-92.97273438 360.01804687 -92.06265625 360.80953125 -91.125 361.625 C-90.22007812 362.42164063 -89.31515625 363.21828125 -88.3828125 364.0390625 C-86.17226278 366.00680194 -86.17226278 366.00680194 -84 367 C-84.14330577 369.0001827 -84.28978294 371.00013825 -84.4375 373 C-84.51871094 374.11375 -84.59992188 375.2275 -84.68359375 376.375 C-85.02346676 380.26885373 -85.49431852 384.12452513 -86 388 C-84.84242188 387.41089844 -83.68484375 386.82179688 -82.4921875 386.21484375 C-80.95353458 385.45489932 -79.41444897 384.69583054 -77.875 383.9375 C-77.11445313 383.54755859 -76.35390625 383.15761719 -75.5703125 382.75585938 C-70.96582041 380.51315418 -68.0760071 379.32599766 -63 381 C-60.31845687 382.08334904 -57.7223893 383.29195666 -55.125 384.5625 C-52.77375 385.696875 -50.4225 386.83125 -48 388 C-48.99 381.07 -49.98 374.14 -51 367 C-49.68 366.34 -48.36 365.68 -47 365 C-45.21367703 363.50057132 -43.46545079 361.95502047 -41.75 360.375 C-40.85796875 359.55773437 -39.9659375 358.74046875 -39.046875 357.8984375 C-38.37140625 357.27195312 -37.6959375 356.64546875 -37 356 C-37.495 355.01 -37.495 355.01 -38 354 C-40.43793207 353.51835976 -42.78813018 353.15781367 -45.25 352.875 C-45.91902344 352.78863281 -46.58804688 352.70226562 -47.27734375 352.61328125 C-50.87032177 352.16857081 -54.38037144 351.90179302 -58 352 C-58.20625 351.236875 -58.4125 350.47375 -58.625 349.6875 C-60.55894391 344.50101406 -63.2785146 339.80966916 -66 335 C-66.66 335 -67.32 335 -68 335 Z M20 335 C18.66161267 337.45570175 17.32913768 339.91429916 16 342.375 C15.6184375 343.07367188 15.236875 343.77234375 14.84375 344.4921875 C12.74275256 348.0428946 12.74275256 348.0428946 12 352 C10.83984375 352.09087891 10.83984375 352.09087891 9.65625 352.18359375 C3.74750457 352.65892599 -2.12508141 353.20914557 -8 354 C-8.34454176 357.14973714 -8.34454176 357.14973714 -5.8828125 359.2265625 C-4.97273437 360.01804687 -4.06265625 360.80953125 -3.125 361.625 C-2.22007812 362.42164063 -1.31515625 363.21828125 -0.3828125 364.0390625 C1.82773722 366.00680194 1.82773722 366.00680194 4 367 C3.85669423 369.0001827 3.71021706 371.00013825 3.5625 373 C3.48128906 374.11375 3.40007812 375.2275 3.31640625 376.375 C2.97653324 380.26885373 2.50568148 384.12452513 2 388 C3.15757812 387.41089844 4.31515625 386.82179688 5.5078125 386.21484375 C7.04646542 385.45489932 8.58555103 384.69583054 10.125 383.9375 C10.88554687 383.54755859 11.64609375 383.15761719 12.4296875 382.75585938 C17.03417959 380.51315418 19.9239929 379.32599766 25 381 C27.68154313 382.08334904 30.2776107 383.29195666 32.875 384.5625 C35.22625 385.696875 37.5775 386.83125 40 388 C39.01 381.07 38.02 374.14 37 367 C38.32 366.34 39.64 365.68 41 365 C42.78632297 363.50057132 44.53454921 361.95502047 46.25 360.375 C47.14203125 359.55773437 48.0340625 358.74046875 48.953125 357.8984375 C49.62859375 357.27195312 50.3040625 356.64546875 51 356 C50.505 355.01 50.505 355.01 50 354 C47.56206793 353.51835976 45.21186982 353.15781367 42.75 352.875 C42.08097656 352.78863281 41.41195312 352.70226562 40.72265625 352.61328125 C37.12967823 352.16857081 33.61962856 351.90179302 30 352 C29.79375 351.236875 29.5875 350.47375 29.375 349.6875 C27.44105609 344.50101406 24.7214854 339.80966916 22 335 C21.34 335 20.68 335 20 335 Z " fill="#000000" transform="translate(235,19)"/>
<path d="M0 0 C4.22399175 1.591504 6.72277017 4.76689001 9.625 8.0625 C19.33312889 18.77441057 29.87469883 27.18896691 42 35 C42.58265625 35.37543945 43.1653125 35.75087891 43.765625 36.13769531 C57.60094266 44.88982675 73.27645177 50.63872385 89 55 C88.41432078 62.74581395 86.59534654 69.86338419 84.4375 77.3125 C84.08034912 78.54709961 83.72319824 79.78169922 83.35522461 81.05371094 C75.14240369 108.81769341 62.58186013 132.73470582 42.37255859 153.57617188 C41.16364139 154.83024607 39.98009428 156.10867193 38.80078125 157.390625 C30.11841546 166.58566381 19.454526 173.95258128 8.875 180.8125 C7.88242187 181.45832031 6.88984375 182.10414063 5.8671875 182.76953125 C2.26137137 184.3169864 0.72742989 184.18082703 -3 183 C-5.4602376 181.61611635 -7.6978877 180.23168254 -10 178.625 C-10.65226562 178.17729248 -11.30453125 177.72958496 -11.9765625 177.26831055 C-13.99849368 175.8643272 -16.00240542 174.43836698 -18 173 C-18.59941406 172.56864746 -19.19882812 172.13729492 -19.81640625 171.69287109 C-53.73517087 146.92724066 -73.065486 112.01026593 -83.9375 72.125 C-84.24437744 71.00109863 -84.55125488 69.87719727 -84.86743164 68.71923828 C-85.14707764 67.65946777 -85.42672363 66.59969727 -85.71484375 65.5078125 C-85.96355225 64.56566895 -86.21226074 63.62352539 -86.46850586 62.65283203 C-86.99487774 60.02556661 -87.09952907 57.67125135 -87 55 C-86.35675781 54.79955078 -85.71351563 54.59910156 -85.05078125 54.39257812 C-71.78811444 50.22079776 -59.12250188 45.85017566 -47 39 C-46.35740234 38.64292969 -45.71480469 38.28585937 -45.05273438 37.91796875 C-36.33680313 33.03842663 -28.49661769 27.64547332 -21 21 C-20.50902832 20.56929199 -20.01805664 20.13858398 -19.51220703 19.69482422 C-12.50763647 13.53000236 -6.08646718 7.08550851 0 0 Z M35 59 C18.83 75.17 2.66 91.34 -14 108 C-17.45259693 106.27370154 -19.07238601 105.16774527 -21.671875 102.5234375 C-22.66767578 101.51796875 -22.66767578 101.51796875 -23.68359375 100.4921875 C-24.36550781 99.79351562 -25.04742187 99.09484375 -25.75 98.375 C-26.44738281 97.66859375 -27.14476562 96.9621875 -27.86328125 96.234375 C-29.58012488 94.49401297 -31.29211832 92.74915019 -33 91 C-34.08839774 91.88967344 -35.17044608 92.78711574 -36.25 93.6875 C-36.85328125 94.18636719 -37.4565625 94.68523437 -38.078125 95.19921875 C-40.50453961 97.38691933 -40.50453961 97.38691933 -44 102 C-34.76 111.24 -25.52 120.48 -16 130 C-11.94839542 127.97419771 -9.34354005 125.61310887 -6.22167969 122.44873047 C-5.65538849 121.88273132 -5.08909729 121.31673218 -4.50564575 120.73358154 C-2.63960762 118.8661528 -0.78074904 116.99174538 1.078125 115.1171875 C2.37234554 113.81923589 3.66700905 112.52172584 4.96209717 111.22463989 C8.36625646 107.81285164 11.76436634 104.39509948 15.16125488 100.97607422 C18.62991407 97.4869408 22.10425583 94.00347613 25.578125 90.51953125 C32.39099302 83.68522632 39.1974842 76.84460797 46 70 C45.11032656 68.91160226 44.21288426 67.82955392 43.3125 66.75 C42.56419922 65.84507812 42.56419922 65.84507812 41.80078125 64.921875 C39.61308067 62.49546039 39.61308067 62.49546039 35 59 Z " fill="#000000" transform="translate(399,312)"/>
<path d="M0 0 C14 0 14 0 17.625 1.625 C23.19406761 7.19406761 24.45907269 10.62062166 24.55578613 18.45410156 C24.54768921 19.54174805 24.53959229 20.62939453 24.53125 21.75 C24.5350769 22.88147461 24.53890381 24.01294922 24.54284668 25.17871094 C24.54556298 27.56576428 24.53822167 29.95284754 24.52148438 32.33984375 C24.50007246 35.98765606 24.52129746 39.63349875 24.546875 43.28125 C24.54423168 45.604171 24.53910661 47.92709078 24.53125 50.25 C24.53934692 51.33764648 24.54744385 52.42529297 24.55578613 53.54589844 C24.45907269 61.37937834 23.19406761 64.80593239 17.625 70.375 C14 72 14 72 0 72 C0 48.24 0 24.48 0 0 Z " fill="#000000" transform="translate(152,240)"/>
<path d="M0 0 C14 0 14 0 17.625 1.625 C22.28491201 6.28491201 24.25257203 9.33593997 24.5 16 C24.25257203 22.66406003 22.28491201 25.71508799 17.625 30.375 C14 32 14 32 0 32 C0 21.44 0 10.88 0 0 Z " fill="#000000" transform="translate(296,240)"/>
<path d="M0 0 C14 0 14 0 17.625 1.625 C22.28491201 6.28491201 24.25257203 9.33593997 24.5 16 C24.25257203 22.66406003 22.28491201 25.71508799 17.625 30.375 C14 32 14 32 0 32 C0 21.44 0 10.88 0 0 Z " fill="#000000" transform="translate(224,240)"/>
</svg>
