<?xml version="1.0" encoding="UTF-8"?>
<svg version="1.1" xmlns="http://www.w3.org/2000/svg" width="352" height="187">
<path d="M0 0 C3.8551899 3.21265825 3.51627177 6.58716071 4.1796875 11.484375 C5.12842761 15.6844155 6.48381541 18.48519645 9.91796875 21.14453125 C10.62566406 21.55058594 11.33335938 21.95664062 12.0625 22.375 C12.77792969 22.79394531 13.49335937 23.21289062 14.23046875 23.64453125 C14.77316406 23.94746094 15.31585938 24.25039063 15.875 24.5625 C15.875 21.9225 15.875 19.2825 15.875 16.5625 C15.215 16.2325 14.555 15.9025 13.875 15.5625 C13.875 14.5725 13.875 13.5825 13.875 12.5625 C17.175 12.5625 20.475 12.5625 23.875 12.5625 C23.545 13.8825 23.215 15.2025 22.875 16.5625 C22.81043121 17.97784778 22.78888961 19.39587689 22.8125 20.8125 C22.833125 22.05 22.85375 23.2875 22.875 24.5625 C24.15109323 23.65316991 25.42065553 22.73467147 26.6875 21.8125 C27.39519531 21.30203125 28.10289063 20.7915625 28.83203125 20.265625 C33.09466248 16.71207392 34.18619488 14.06303779 34.75 8.5625 C35.32138756 4.90204845 35.64585739 2.89857583 37.75 -0.1875 C47.06567394 -3.91376958 55.15361902 -0.95735406 63.91113281 2.7199707 C68.21846294 4.62552466 71.94985706 6.94573804 75.875 9.5625 C77.77484403 10.22252099 77.77484403 10.22252099 79.875 10.5625 C81.02742187 10.89765625 82.17984375 11.2328125 83.3671875 11.578125 C98.31448011 15.83807726 113.53991249 18.18857655 128.875 20.5625 C127.08300781 25.42382813 127.08300781 25.42382813 125.2109375 26.671875 C120.41582024 28.23840733 115.90555756 29.11334308 110.875 29.5625 C110.875 30.2225 110.875 30.8825 110.875 31.5625 C102.80975404 34.95839303 95.49238853 34.86904742 86.875 34.5625 C86.545 35.5525 86.215 36.5425 85.875 37.5625 C76.11827437 41.38866692 66.13294939 39.80370925 56.76318359 35.77294922 C53.09718653 34.1067232 49.47446888 32.36762287 45.875 30.5625 C44.12703125 29.69238281 44.12703125 29.69238281 42.34375 28.8046875 C41.5290625 28.39476563 40.714375 27.98484375 39.875 27.5625 C39.875 26.9025 39.875 26.2425 39.875 25.5625 C35.915 27.5425 35.915 27.5425 31.875 29.5625 C32.74382812 29.73265625 33.61265625 29.9028125 34.5078125 30.078125 C42.44631984 31.74752028 47.35840748 33.14095052 53.1875 38.8125 C55.90879834 43.24720841 56.24031103 47.07453959 55.50390625 52.08984375 C53.98024365 58.38323276 51.41259697 62.15184369 45.875 65.5625 C44.885 65.8925 43.895 66.2225 42.875 66.5625 C43.514375 67.34625 44.15375 68.13 44.8125 68.9375 C48.22339472 73.27863873 48.27247536 76.36268604 48.22265625 81.79296875 C47.67155937 86.18316745 46.19666378 87.68372472 42.875 90.5625 C40.0625 91.9375 40.0625 91.9375 37.875 92.5625 C38.865 93.738125 38.865 93.738125 39.875 94.9375 C42.70835487 99.19765143 42.69861915 103.62078511 41.875 108.5625 C40.06913985 111.72275526 39.04577636 113.13971965 35.625 114.375 C35.0475 114.436875 34.47 114.49875 33.875 114.5625 C34.37 115.2225 34.865 115.8825 35.375 116.5625 C37.28912551 120.39075101 37.50491984 123.35735945 36.875 127.5625 C35.51347463 130.69400836 34.61127001 132.12073799 31.6875 133.875 C31.089375 134.101875 30.49125 134.32875 29.875 134.5625 C30.535 135.5525 31.195 136.5425 31.875 137.5625 C32.96331166 143.77600029 31.5301033 149.91184639 30.0625 155.9375 C29.89733887 156.62739014 29.73217773 157.31728027 29.56201172 158.02807617 C28.59595013 161.74191502 27.70848858 164.8868086 24.875 167.5625 C23.555 167.5625 22.235 167.5625 20.875 167.5625 C21.184375 169.1403125 21.184375 169.1403125 21.5 170.75 C21.87463104 174.55874887 21.59130067 176.23085752 19.875 179.5625 C19.215 179.5625 18.555 179.5625 17.875 179.5625 C17.16160865 174.39041273 16.82596114 169.41013855 16.875 164.1875 C16.95303289 155.29175052 16.40497711 146.43961664 15.875 137.5625 C13.61048775 138.43311168 13.61048775 138.43311168 12.70703125 141.12109375 C11.73208398 145.15362214 11.98464799 148.58003595 12.5625 152.625 C12.64177734 153.31916016 12.72105469 154.01332031 12.80273438 154.72851562 C13.36991487 159.02521388 14.48659673 161.97660529 16.875 165.5625 C16.875 166.2225 16.875 166.8825 16.875 167.5625 C14.39542955 167.22049028 13.14592589 166.84049968 11.37890625 165.02734375 C9.3307407 161.67048021 8.49069316 158.16797275 7.625 154.375 C7.35961426 153.23695923 7.35961426 153.23695923 7.08886719 152.07592773 C5.89314793 146.57196361 5.70494392 142.1202664 6.875 136.5625 C7.10777462 134.20442717 7.10777462 134.20442717 4.375 132 C1.4839808 128.65853871 1.32578643 126.00407378 1.56640625 121.6875 C1.94329898 119.09218802 2.67276295 116.89183429 3.875 114.5625 C3.276875 114.315 2.67875 114.0675 2.0625 113.8125 C-0.51014674 112.34241615 -1.56407573 111.07316974 -3.125 108.5625 C-3.90410624 103.86494769 -3.68731819 99.73399623 -1.625 95.4375 C-0.8825 94.509375 -0.8825 94.509375 -0.125 93.5625 C-0.69089844 93.08039063 -1.25679688 92.59828125 -1.83984375 92.1015625 C-2.94005859 91.15410156 -2.94005859 91.15410156 -4.0625 90.1875 C-4.79339844 89.56101562 -5.52429688 88.93453125 -6.27734375 88.2890625 C-8.49141766 86.22009703 -9.058745 85.21744697 -9.36328125 82.20703125 C-9.53429159 75.68163658 -8.92473525 71.9058777 -5.125 66.5625 C-5.66769531 66.18738281 -6.21039063 65.81226562 -6.76953125 65.42578125 C-15.28333499 59.33572704 -15.28333499 59.33572704 -16.5859375 53.49609375 C-17.35987084 48.41393147 -17.3254417 44.31545407 -15.125 39.5625 C-9.48047808 32.10863817 -1.98904623 30.86969783 6.875 29.5625 C4.10894361 27.84572447 4.10894361 27.84572447 0.875 26.5625 C-1.13351267 27.31797874 -1.13351267 27.31797874 -3.125 28.5625 C-6.17903406 30.08026678 -9.24385043 31.57452585 -12.3125 33.0625 C-13.12525391 33.46597656 -13.93800781 33.86945312 -14.77539062 34.28515625 C-24.31006659 38.88182581 -33.831265 41.45621576 -44.125 38.0625 C-45.46273782 37.57440647 -46.79782477 37.0786237 -48.125 36.5625 C-48.125 35.9025 -48.125 35.2425 -48.125 34.5625 C-49.59259766 34.61470703 -49.59259766 34.61470703 -51.08984375 34.66796875 C-58.71761917 34.82547444 -64.9935332 34.56522286 -72.125 31.5625 C-72.125 30.9025 -72.125 30.2425 -72.125 29.5625 C-73.31996094 29.41554688 -73.31996094 29.41554688 -74.5390625 29.265625 C-85.60735294 27.70367647 -85.60735294 27.70367647 -90.125 23.5625 C-90.125 22.5725 -90.125 21.5825 -90.125 20.5625 C-89.33029297 20.43198242 -88.53558594 20.30146484 -87.71679688 20.16699219 C-67.76954673 16.92224988 -67.76954673 16.92224988 -48.09375 12.359375 C-41.3995098 10.5625 -41.3995098 10.5625 -38.125 10.5625 C-37.67382812 10.10891113 -37.22265625 9.65532227 -36.7578125 9.18798828 C-34.93268996 7.37105259 -33.35341714 6.57903551 -31 5.5546875 C-30.21109375 5.20792969 -29.4221875 4.86117188 -28.609375 4.50390625 C-27.78953125 4.15199219 -26.9696875 3.80007812 -26.125 3.4375 C-25.30515625 3.07785156 -24.4853125 2.71820312 -23.640625 2.34765625 C-15.95259769 -1.0064341 -8.10719396 -3.72930922 0 0 Z M-38.125 12.5625 C-38.125 13.2225 -38.125 13.8825 -38.125 14.5625 C-37.465 14.2325 -36.805 13.9025 -36.125 13.5625 C-36.785 13.2325 -37.445 12.9025 -38.125 12.5625 Z M-33.125 15.5625 C-33.125 15.8925 -33.125 16.2225 -33.125 16.5625 C-28.505 16.5625 -23.885 16.5625 -19.125 16.5625 C-19.125 16.2325 -19.125 15.9025 -19.125 15.5625 C-23.745 15.5625 -28.365 15.5625 -33.125 15.5625 Z M57.875 15.5625 C57.875 15.8925 57.875 16.2225 57.875 16.5625 C60.845 17.0575 60.845 17.0575 63.875 17.5625 C63.875 16.9025 63.875 16.2425 63.875 15.5625 C61.895 15.5625 59.915 15.5625 57.875 15.5625 Z M64.875 15.5625 C64.875 15.8925 64.875 16.2225 64.875 16.5625 C67.185 16.5625 69.495 16.5625 71.875 16.5625 C71.875 16.2325 71.875 15.9025 71.875 15.5625 C69.565 15.5625 67.255 15.5625 64.875 15.5625 Z M48.875 19.5625 C49.205 20.2225 49.535 20.8825 49.875 21.5625 C50.535 21.2325 51.195 20.9025 51.875 20.5625 C50.885 20.2325 49.895 19.9025 48.875 19.5625 Z M17.875 25.5625 C18.535 26.2225 19.195 26.8825 19.875 27.5625 C20.205 26.9025 20.535 26.2425 20.875 25.5625 C19.885 25.5625 18.895 25.5625 17.875 25.5625 Z M-56.125 26.5625 C-52.125 27.5625 -52.125 27.5625 -52.125 27.5625 Z M90.875 26.5625 C94.875 27.5625 94.875 27.5625 94.875 27.5625 Z M-63.125 27.5625 C-63.125 27.8925 -63.125 28.2225 -63.125 28.5625 C-61.145 28.5625 -59.165 28.5625 -57.125 28.5625 C-57.125 28.2325 -57.125 27.9025 -57.125 27.5625 C-59.105 27.5625 -61.085 27.5625 -63.125 27.5625 Z M94.875 27.5625 C94.875 27.8925 94.875 28.2225 94.875 28.5625 C97.185 28.5625 99.495 28.5625 101.875 28.5625 C101.875 28.2325 101.875 27.9025 101.875 27.5625 C99.565 27.5625 97.255 27.5625 94.875 27.5625 Z M18.875 28.5625 C18.545 29.5525 18.215 30.5425 17.875 31.5625 C16.885 31.8925 15.895 32.2225 14.875 32.5625 C16.15788757 35.11753957 16.15788757 35.11753957 17.875 37.5625 C18.865 37.5625 19.855 37.5625 20.875 37.5625 C22.59211243 35.11753957 22.59211243 35.11753957 23.875 32.5625 C22.225 31.2425 20.575 29.9225 18.875 28.5625 Z M-0.125 38.5625 C-3.3375474 40.97191055 -4.85165373 42.7424612 -6.125 46.5625 C-6.125 50.3563847 -5.61862196 51.69105653 -3.125 54.5625 C2.30547747 58.09783177 7.56273375 59.29343506 13.9375 59.8125 C14.70126953 59.88984375 15.46503906 59.9671875 16.25195312 60.046875 C20.81043561 60.48361584 25.29714687 60.63545383 29.875 60.5625 C29.875 59.9025 29.875 59.2425 29.875 58.5625 C31.421875 58.43875 31.421875 58.43875 33 58.3125 C37.44741695 57.45170962 40.64686157 55.79063843 43.875 52.5625 C44.2271676 47.27998605 44.37088279 43.83524563 40.875 39.5625 C38.1095407 38.33835184 38.1095407 38.33835184 36.1875 39 C31.31609145 40.18493721 26.69775871 39.76818968 21.875 38.5625 C22.205 45.1625 22.535 51.7625 22.875 58.5625 C20.565 58.5625 18.255 58.5625 15.875 58.5625 C15.875 52.2925 15.875 46.0225 15.875 39.5625 C13.3071875 39.5934375 13.3071875 39.5934375 10.6875 39.625 C7.68531868 39.66117086 5.11157808 39.61812504 2.18359375 38.9296875 C1.04083984 38.74792969 1.04083984 38.74792969 -0.125 38.5625 Z M1.875 68.5625 C1.875 68.8925 1.875 69.2225 1.875 69.5625 C3.525 69.5625 5.175 69.5625 6.875 69.5625 C6.875 69.2325 6.875 68.9025 6.875 68.5625 C5.225 68.5625 3.575 68.5625 1.875 68.5625 Z M3.625 71.75 C2.02342417 74.32396115 0.78329744 76.6724627 -0.125 79.5625 C2.98807513 82.94241014 5.37858001 85.38486619 9.875 86.5625 C12.185 86.5625 14.495 86.5625 16.875 86.5625 C16.545 81.2825 16.215 76.0025 15.875 70.5625 C17.525 70.5625 19.175 70.5625 20.875 70.5625 C20.875 70.2325 20.875 69.9025 20.875 69.5625 C11.79941706 68.68902793 11.79941706 68.68902793 3.625 71.75 Z M21.875 71.5625 C21.80186433 74.09299402 21.78252473 76.59554837 21.8125 79.125 C21.81701172 79.83591797 21.82152344 80.54683594 21.82617188 81.27929688 C21.83799136 83.04040013 21.85592737 84.80146036 21.875 86.5625 C21.215 86.8925 20.555 87.2225 19.875 87.5625 C22.845 87.5625 25.815 87.5625 28.875 87.5625 C28.875 86.9025 28.875 86.2425 28.875 85.5625 C29.7825 85.294375 30.69 85.02625 31.625 84.75 C34.58971963 83.66673706 36.4919754 82.57890543 38.875 80.5625 C38.58040991 77.02741897 38.12618587 75.80046556 35.5 73.3125 C32.18163671 71.10025781 25.25834251 68.17915749 21.875 71.5625 Z M7.5 97.1875 C5.51666299 100.08622332 4.9496358 102.05461723 4.875 105.5625 C6.48431877 107.7570256 7.46587341 108.46993423 10.13671875 109.07421875 C10.93722656 109.13222656 11.73773438 109.19023438 12.5625 109.25 C13.985625 109.353125 15.40875 109.45625 16.875 109.5625 C16.875 104.9425 16.875 100.3225 16.875 95.5625 C10.35823912 94.9037021 10.35823912 94.9037021 7.5 97.1875 Z M20.875 95.5625 C21.205 100.5125 21.535 105.4625 21.875 110.5625 C26.87818359 110.5625 28.83306686 110.3183635 32.875 107.5625 C34.29274107 104.72274942 34.29274107 104.72274942 33.875 101.5625 C31.8514633 98.62510801 30.28857199 96.91719703 26.7578125 96.03125 C24.80660731 95.78127353 22.83961467 95.66239566 20.875 95.5625 Z M10 119.125 C8.32813443 122.7473754 8.64432525 124.80210493 9.875 128.5625 C12.16984597 130.12891038 14.1750053 130.72795618 16.875 131.5625 C16.875 126.9425 16.875 122.3225 16.875 117.5625 C12.10840056 117.029013 12.10840056 117.029013 10 119.125 Z M21.875 117.5625 C21.545 122.1825 21.215 126.8025 20.875 131.5625 C26.56802969 129.95717611 26.56802969 129.95717611 29.875 127.5625 C30.54221536 124.64809301 30.54221536 124.64809301 29.875 121.5625 C27.67011741 119.09833866 27.67011741 119.09833866 24.875 117.5625 C23.885 117.5625 22.895 117.5625 21.875 117.5625 Z M20.875 137.5625 C20.875 146.8025 20.875 156.0425 20.875 165.5625 C21.865 165.2325 22.855 164.9025 23.875 164.5625 C25.71549893 159.45000298 26.24817233 154.20486641 26.75 148.8125 C26.87117188 147.53890625 26.99234375 146.2653125 27.1171875 144.953125 C27.18152598 141.50080248 27.18152598 141.50080248 25.0078125 139.109375 C23.04428388 137.36679556 23.04428388 137.36679556 20.875 137.5625 Z " fill="#FCFCFC" transform="translate(90.125,7.4375)"/>
<path d="M0 0 C4.29 0 8.58 0 13 0 C13 6.27 13 12.54 13 19 C17.29 19 21.58 19 26 19 C26 12.73 26 6.46 26 0 C30.29 0 34.58 0 39 0 C39 16.5 39 33 39 50 C34.71 50 30.42 50 26 50 C26 43.73 26 37.46 26 31 C21.71 31 17.42 31 13 31 C13 37.27 13 43.54 13 50 C8.71 50 4.42 50 0 50 C0 33.5 0 17 0 0 Z " fill="#FCFCFC" transform="translate(154,68)"/>
<path d="M0 0 C4.95 0 9.9 0 15 0 C17.53551281 5.57945742 19.39163337 11.21971994 21.13671875 17.08984375 C21.56317436 18.5066317 21.56317436 18.5066317 21.99824524 19.95204163 C22.8984974 22.94605915 23.79308026 25.94173558 24.6875 28.9375 C25.29975548 30.97732605 25.91238185 33.01704083 26.52539062 35.05664062 C28.02122151 40.03648307 29.51197296 45.01782039 31 50 C26.05 50 21.1 50 16 50 C15.01 47.36 14.02 44.72 13 42 C6.07 41.505 6.07 41.505 -1 41 C-1.66 43.97 -2.32 46.94 -3 50 C-6.96 50 -10.92 50 -15 50 C-14.36442699 44.20819476 -12.88216356 38.95319746 -11.09375 33.41796875 C-10.80898804 32.52257889 -10.52422607 31.62718903 -10.23083496 30.70466614 C-9.63158079 28.82384833 -9.02968721 26.94386964 -8.42529297 25.06469727 C-7.49790369 22.18098151 -6.57833791 19.29486233 -5.66015625 16.40820312 C-5.07597075 14.57798133 -4.49135066 12.74789818 -3.90625 10.91796875 C-3.63018921 10.05342575 -3.35412842 9.18888275 -3.06970215 8.29814148 C-2.8127356 7.50003555 -2.55576904 6.70192963 -2.29101562 5.87963867 C-1.95245544 4.82542976 -1.95245544 4.82542976 -1.60705566 3.74992371 C-1 2 -1 2 0 0 Z M6 17 C5.01 20.96 4.02 24.92 3 29 C5.31 29 7.62 29 10 29 C9.01 25.04 8.02 21.08 7 17 C6.67 17 6.34 17 6 17 Z " fill="#FCFCFC" transform="translate(275,68)"/>
<path d="M0 0 C4.95 0 9.9 0 15 0 C18.60574134 8.46490705 21.330365 17.12293662 24.00146484 25.91552734 C24.75536016 28.39261197 25.51988181 30.86625406 26.28515625 33.33984375 C26.76886884 34.92167953 27.25196432 36.50370419 27.734375 38.0859375 C27.96243835 38.82137787 28.19050171 39.55681824 28.42547607 40.31454468 C29.45511848 43.73233125 30 46.39355923 30 50 C25.38 50 20.76 50 16 50 C15.01 47.36 14.02 44.72 13 42 C6.07 41.505 6.07 41.505 -1 41 C-1.66 43.97 -2.32 46.94 -3 50 C-6.96 50 -10.92 50 -15 50 C-14.36442699 44.20819476 -12.88216356 38.95319746 -11.09375 33.41796875 C-10.80898804 32.52257889 -10.52422607 31.62718903 -10.23083496 30.70466614 C-9.63158079 28.82384833 -9.02968721 26.94386964 -8.42529297 25.06469727 C-7.49790369 22.18098151 -6.57833791 19.29486233 -5.66015625 16.40820312 C-5.07597075 14.57798133 -4.49135066 12.74789818 -3.90625 10.91796875 C-3.63018921 10.05342575 -3.35412842 9.18888275 -3.06970215 8.29814148 C-2.8127356 7.50003555 -2.55576904 6.70192963 -2.29101562 5.87963867 C-1.95245544 4.82542976 -1.95245544 4.82542976 -1.60705566 3.74992371 C-1 2 -1 2 0 0 Z M6 17 C5.01 20.96 4.02 24.92 3 29 C5.31 29 7.62 29 10 29 C9.01 25.04 8.02 21.08 7 17 C6.67 17 6.34 17 6 17 Z " fill="#FCFCFC" transform="translate(322,68)"/>
<path d="M0 0 C4.18744918 -0.08388369 8.37446515 -0.14059401 12.5625 -0.1875 C13.74392578 -0.21263672 14.92535156 -0.23777344 16.14257812 -0.26367188 C24.28538802 -0.33209885 29.61838787 -0.0140456 35.875 5.5625 C39.6420318 9.88350706 39.33486336 13.35611954 39.28125 18.9453125 C38.87135683 23.39720776 37.76264866 25.49068954 35 29 C28.68384029 33.85858439 21.60747691 33.09165635 14 33 C14 38.61 14 44.22 14 50 C11.37670316 51.31164842 9.36301375 51.13262846 6.4375 51.125 C5.44621094 51.12757812 4.45492187 51.13015625 3.43359375 51.1328125 C1 51 1 51 0 50 C-0.09326716 48.43452952 -0.11745582 46.86487228 -0.11352539 45.29663086 C-0.11344986 44.29566879 -0.11337433 43.29470673 -0.11329651 42.26341248 C-0.10813522 41.1748848 -0.10297394 40.08635712 -0.09765625 38.96484375 C-0.0962413 37.85645645 -0.09482635 36.74806915 -0.09336853 35.60609436 C-0.08775033 32.04986931 -0.07519475 28.49370617 -0.0625 24.9375 C-0.05748734 22.53320403 -0.05292403 20.12890708 -0.04882812 17.72460938 C-0.03777499 11.81638496 -0.02101917 5.9081969 0 0 Z M13 11 C13 14.63 13 18.26 13 22 C17.45280788 22.17461992 21.08594062 22.30238787 25 20 C26.08568503 18.15732132 26.08568503 18.15732132 26 16 C25.3498008 13.78265886 25.3498008 13.78265886 24 12 C21.24921116 11.08307039 19.64051087 10.89113917 16.8125 10.9375 C15.554375 10.958125 14.29625 10.97875 13 11 Z " fill="#FCFCFC" transform="translate(225,68)"/>
<path d="M0 0 C4.29 0 8.58 0 13 0 C13 16.5 13 33 13 50 C8.71 50 4.42 50 0 50 C0 33.5 0 17 0 0 Z " fill="#FDFDFD" transform="translate(202,68)"/>
<path d="M0 0 C1.94238281 0.17163086 1.94238281 0.17163086 4 1 C5.09667969 2.85766602 5.09667969 2.85766602 5.921875 5.25390625 C6.22480469 6.10791016 6.52773437 6.96191406 6.83984375 7.84179688 C7.14019531 8.73962891 7.44054687 9.63746094 7.75 10.5625 C8.22373047 11.91504883 8.22373047 11.91504883 8.70703125 13.29492188 C9.48591366 15.52535788 10.24940352 17.75991885 11 20 C11.28665527 19.14450562 11.28665527 19.14450562 11.57910156 18.27172852 C12.45267313 15.69595386 13.35091658 13.12947492 14.25 10.5625 C14.55035156 9.66466797 14.85070312 8.76683594 15.16015625 7.84179688 C15.61455078 6.56079102 15.61455078 6.56079102 16.078125 5.25390625 C16.35043945 4.46314697 16.62275391 3.6723877 16.90332031 2.85766602 C18 1 18 1 20.05761719 0.17163086 C20.69860352 0.11499268 21.33958984 0.05835449 22 0 C23 1 23 1 23.11352539 3.59204102 C23.10828857 4.71795654 23.10305176 5.84387207 23.09765625 7.00390625 C23.09443359 8.21884766 23.09121094 9.43378906 23.08789062 10.68554688 C23.07951172 11.96494141 23.07113281 13.24433594 23.0625 14.5625 C23.05798828 15.84576172 23.05347656 17.12902344 23.04882812 18.45117188 C23.03699545 21.63416022 23.02051068 24.81705762 23 28 C21.68 28 20.36 28 19 28 C18.67 23.05 18.34 18.1 18 13 C16.51651502 17.55660988 16.51651502 17.55660988 15.06933594 22.12475586 C14.484375 23.83984375 14.484375 23.83984375 13 27 C11.68 27.33 10.36 27.66 9 28 C7.35 23.05 5.7 18.1 4 13 C3.67 17.95 3.34 22.9 3 28 C1.68 28 0.36 28 -1 28 C-1.02886338 23.52084672 -1.04675187 19.04171709 -1.0625 14.5625 C-1.07087891 13.28310547 -1.07925781 12.00371094 -1.08789062 10.68554688 C-1.09111328 9.47060547 -1.09433594 8.25566406 -1.09765625 7.00390625 C-1.10289307 5.87799072 -1.10812988 4.7520752 -1.11352539 3.59204102 C-1 1 -1 1 0 0 Z " fill="#FDFDFD" transform="translate(207,126)"/>
<path d="M0 0 C2.50160818 1.87620613 3.61945652 3.23891303 5 6 C5.50761671 10.39934481 5.25800237 12.54225386 3.0625 16.4375 C-0.51975668 19.43489845 -2.29630176 19.84543171 -6.84375 19.51953125 C-10.424896 18.65668267 -11.93575189 16.96735665 -14 14 C-15.30400002 10.16949995 -15.20871714 8.54266456 -13.75 4.75 C-10.27697518 -0.70761044 -5.96487925 -0.90605761 0 0 Z " fill="#FDFDFD" transform="translate(114,0)"/>
<path d="M0 0 C4 1 4 1 5.46386719 2.76586914 C6.12370605 3.88916626 6.12370605 3.88916626 6.796875 5.03515625 C7.28027344 5.84404297 7.76367188 6.65292969 8.26171875 7.48632812 C8.75285156 8.33646484 9.24398438 9.18660156 9.75 10.0625 C10.25660156 10.91650391 10.76320313 11.77050781 11.28515625 12.65039062 C12.53462476 14.76034216 13.76878801 16.87934348 15 19 C15.33 12.73 15.66 6.46 16 0 C16.99 0.33 17.98 0.66 19 1 C19 9.91 19 18.82 19 28 C14 27 14 27 12.62207031 25.43359375 C12.27756836 24.77488281 11.93306641 24.11617187 11.578125 23.4375 C11.19269531 22.72335938 10.80726563 22.00921875 10.41015625 21.2734375 C10.02730469 20.52320313 9.64445312 19.77296875 9.25 19 C8.46442115 17.52036605 7.67800637 16.04117553 6.890625 14.5625 C6.55063477 13.90378906 6.21064453 13.24507812 5.86035156 12.56640625 C5.09714462 11.00402398 5.09714462 11.00402398 4 10 C3.67 15.94 3.34 21.88 3 28 C2.01 28 1.02 28 0 28 C0 18.76 0 9.52 0 0 Z " fill="#FCFCFC" transform="translate(311,126)"/>
<path d="M0 0 C3.8001378 1.43560762 4.7925344 2.63514671 6.8125 6.1875 C8.55377166 11.77789848 8.87505936 16.31466562 6.6875 21.8125 C5.22134799 24.58189824 4.36531002 26.0778394 2 28 C-2.05524335 29.19986601 -5.79944113 29.40018629 -9.8125 28.0625 C-13.89070116 24.21733891 -15.75810782 19.96969346 -16.4375 14.4375 C-15.77623765 9.24186721 -14.2533628 4.32871871 -10 1 C-6.79888929 -0.60055535 -3.48117737 -0.35481231 0 0 Z M-11 7 C-12.84479881 10.68959763 -12.34956298 14.96413651 -12 19 C-10.65330448 22.40217816 -9.73232291 23.55675192 -6.625 25.4375 C-3.29682929 26.15067944 -1.92743053 25.6948282 1 24 C4.02131902 20.97868098 4.75144994 18.22535109 5 14 C4.27776911 9.81106081 3.6069497 7.62292206 0.625 4.5625 C-4.48317851 1.52191755 -7.01909593 3.34187194 -11 7 Z " fill="#FCFCFC" transform="translate(194,126)"/>
<path d="M0 0 C4.91973562 0.07039367 8.92194522 0.54088777 12.75 3.875 C14.32017574 7.29244133 13.72465899 9.60401825 12.8125 13.1875 C11.05604569 15.63623761 10.10976102 16.13114516 7.11328125 16.69921875 C2.96289062 16.94335938 2.96289062 16.94335938 -1.1875 17.1875 C-1.1875 20.8175 -1.1875 24.4475 -1.1875 28.1875 C-2.5075 28.1875 -3.8275 28.1875 -5.1875 28.1875 C-5.21636338 23.70834672 -5.23425187 19.22921709 -5.25 14.75 C-5.25837891 13.47060547 -5.26675781 12.19121094 -5.27539062 10.87304688 C-5.27861328 9.65810547 -5.28183594 8.44316406 -5.28515625 7.19140625 C-5.29039307 6.06549072 -5.29562988 4.9395752 -5.30102539 3.77954102 C-5.11863642 -0.38481094 -3.76876437 0.03156419 0 0 Z M-1.1875 4.1875 C-1.1875 7.1575 -1.1875 10.1275 -1.1875 13.1875 C3.32151363 13.36707899 3.32151363 13.36707899 7.8125 13.1875 C10.0616908 11.36046773 10.0616908 11.36046773 10.0625 8.6875 C10.0616908 6.01453227 10.0616908 6.01453227 7.8125 4.1875 C4.79423347 3.91509327 1.84879378 4.10074875 -1.1875 4.1875 Z " fill="#FCFCFC" transform="translate(240.1875,125.8125)"/>
<path d="M0 0 C3.43803208 1.93389305 4.69276462 2.9601264 5.8125 6.75 C5.874375 7.4925 5.93625 8.235 6 9 C3.07874275 8.58267754 2.15055012 8.17650704 0.1875 5.875 C-1.97119674 3.63019305 -1.97119674 3.63019305 -5.5625 3.875 C-9.13054838 4.69524657 -9.13054838 4.69524657 -11 7.5 C-12.51515628 12.80304697 -12.2725346 17.57612458 -9.6875 22.5 C-7.68865036 24.27675523 -6.67458068 24.84267172 -4 25 C-1.3192607 24.49439113 -1.3192607 24.49439113 1 23 C2.36078035 20.47627099 2.36078035 20.47627099 3 18 C3.99 18 4.98 18 6 18 C5.8332083 22.33658424 5.62263575 24.37736425 2.5 27.5 C-2.01992317 29.43710993 -5.32432755 29.50689259 -10 28 C-13.24044458 25.43464804 -14.69560167 23.913195 -16 20 C-16.50924563 13.76174101 -16.71456604 8.30652292 -13 3 C-9.55648297 -0.97328888 -4.89478549 -0.7852597 0 0 Z " fill="#FCFCFC" transform="translate(169,126)"/>
<path d="M0 0 C1.91503906 0.10986328 1.91503906 0.10986328 4 1 C5.28027344 3.26904297 5.28027344 3.26904297 6.359375 6.2421875 C6.75253906 7.30824219 7.14570313 8.37429687 7.55078125 9.47265625 C7.94652344 10.59542969 8.34226562 11.71820313 8.75 12.875 C9.16121094 13.99003906 9.57242187 15.10507813 9.99609375 16.25390625 C13 24.52712313 13 24.52712313 13 28 C11.125 27.875 11.125 27.875 9 27 C7.75 23.9375 7.75 23.9375 7 21 C3.37 20.67 -0.26 20.34 -4 20 C-4.66 22.64 -5.32 25.28 -6 28 C-7.32 28 -8.64 28 -10 28 C-8.19680404 21.56227407 -6.08795184 15.24368522 -3.875 8.9375 C-3.60929199 8.1751001 -3.34358398 7.4127002 -3.06982422 6.62719727 C-1.12175378 1.12175378 -1.12175378 1.12175378 0 0 Z M1 6 C0.49384702 7.26839526 -0.00469099 8.53983102 -0.5 9.8125 C-0.7784375 10.52019531 -1.056875 11.22789062 -1.34375 11.95703125 C-2.1529162 14.11841216 -2.1529162 14.11841216 -2 17 C0.64 17 3.28 17 6 17 C4.68 13.37 3.36 9.74 2 6 C1.67 6 1.34 6 1 6 Z " fill="#FDFDFD" transform="translate(294,126)"/>
<path d="M0 0 C5.94 0 11.88 0 18 0 C18 1.32 18 2.64 18 4 C15.69 4 13.38 4 11 4 C11 11.92 11 19.84 11 28 C9.68 28 8.36 28 7 28 C7 20.08 7 12.16 7 4 C4.69 4 2.38 4 0 4 C0 2.68 0 1.36 0 0 Z " fill="#FCFCFC" transform="translate(334,126)"/>
<path d="M0 0 C0.99 0.33 1.98 0.66 3 1 C3 8.92 3 16.84 3 25 C7.29 25 11.58 25 16 25 C16 25.99 16 26.98 16 28 C10.39 28 4.78 28 -1 28 C-1.02682159 23.52079403 -1.04675177 19.04174649 -1.0625 14.5625 C-1.07087891 13.28310547 -1.07925781 12.00371094 -1.08789062 10.68554688 C-1.09111328 9.47060547 -1.09433594 8.25566406 -1.09765625 7.00390625 C-1.10289307 5.87799072 -1.10812988 4.7520752 -1.11352539 3.59204102 C-1 1 -1 1 0 0 Z " fill="#FDFDFD" transform="translate(259,126)"/>
<path d="M0 0 C0.66 0 1.32 0 2 0 C2 9.24 2 18.48 2 28 C1.01 28 0.02 28 -1 28 C-1.02886338 23.52084672 -1.04675187 19.04171709 -1.0625 14.5625 C-1.07087891 13.28310547 -1.07925781 12.00371094 -1.08789062 10.68554688 C-1.09111328 9.47060547 -1.09433594 8.25566406 -1.09765625 7.00390625 C-1.10289307 5.87799072 -1.10812988 4.7520752 -1.11352539 3.59204102 C-1 1 -1 1 0 0 Z " fill="#FDFDFD" transform="translate(279,126)"/>
</svg>
