<svg width="48" height="48" viewBox="0 0 48 48" fill="none" xmlns="http://www.w3.org/2000/svg">
  <!-- Green icon layers -->
  <path
    d="M13.2778 22.3182C14.1 19.2499 17.2539 16.096 20.3222 15.2737L39.4512 10.1474C42.5194 9.3251 44.3402 11.1459 43.5179 14.2142L38.3915 33.3432C37.5693 36.4114 34.4154 39.5653 31.3471 40.3876L12.2182 45.5139C9.14991 46.3362 7.32916 44.5154 8.15142 41.4471L13.2778 22.3182Z"
    fill="#A3E635"
  />
  <path
    d="M5.60882 14.6493C6.43108 11.5811 9.58498 8.42717 12.6533 7.60491L31.7822 2.47854C34.8505 1.65628 36.6713 3.47702 35.849 6.54529L30.7227 25.6742C29.9004 28.7425 26.7465 31.8964 23.6782 32.7187L4.5492 37.8451C1.48093 38.6673 -0.339816 36.8466 0.482448 33.7783L5.60882 14.6493Z"
    fill="#84CC16"
    fill-opacity="0.5"
  />
</svg>
